<svg viewBox="0 0 3036 537" fill="none" xmlns="http://www.w3.org/2000/svg">
<path d="M514.133 332.129C479.273 471.976 337.656 557.046 197.809 522.186C58.0355 487.326 -27.0587 345.701 7.81747 205.886C42.661 66.0394 184.27 -19.0548 324.068 15.805C463.899 50.6648 548.985 192.306 514.125 332.129H514.133Z" fill="#00B3F0"/>
<path d="M376.047 231.816C381.243 197.087 354.8 178.417 318.644 165.962L330.372 118.917L301.736 111.78L290.317 157.586C282.69 155.712 275.044 153.912 267.382 152.186L278.882 106.079L250.254 98.9424L238.525 145.971C232.294 144.552 226.176 143.149 220.239 141.673L220.271 141.526L180.779 131.665L173.161 162.251C173.161 162.251 194.408 167.12 193.959 167.422C205.557 170.318 207.654 177.993 207.303 184.077L193.943 237.672C194.742 237.876 195.778 238.178 196.92 238.626L193.894 237.876L175.167 312.954C173.748 316.478 170.151 321.763 162.036 319.757C162.329 320.173 141.229 314.561 141.229 314.561L127.013 347.349L164.279 356.647C171.211 358.376 178.006 360.195 184.694 361.908L172.843 409.492L201.447 416.628L213.175 369.542C220.989 371.671 228.574 373.62 235.997 375.472L224.3 422.33L252.929 429.466L264.788 381.972C313.62 391.213 350.339 387.486 365.795 343.328C378.25 307.767 365.175 287.254 339.483 273.869C358.193 269.547 372.287 257.239 376.047 231.816ZM310.61 323.557C301.76 359.119 241.885 339.902 222.473 335.074L238.199 272.034C257.611 276.887 319.859 286.479 310.61 323.557ZM319.468 231.31C311.393 263.65 261.558 247.215 245.393 243.186L259.65 186.01C275.815 190.04 327.877 197.56 319.468 231.302V231.31Z" fill="white"/>
<path d="M834.218 162.46C855.971 162.46 874.779 166.311 890.641 174.015C906.503 181.719 919.645 192.142 930.069 205.284C940.492 218.425 948.197 233.833 953.182 251.506C958.167 269.18 960.66 288.213 960.66 308.605C960.66 339.873 954.768 369.556 942.985 397.652C931.655 425.295 916.02 449.539 896.079 470.385C876.139 490.777 852.572 507.091 825.381 519.327C798.189 531.109 768.731 537 737.007 537C732.929 537 725.677 536.773 715.254 536.32C705.284 536.32 693.727 535.414 680.584 533.601C667.442 531.789 653.393 529.07 638.437 525.444C623.935 521.819 610.112 516.834 596.97 510.49L714.574 16.3139L819.942 0L777.795 175.375C786.859 171.296 795.923 168.124 804.987 165.858C814.051 163.592 823.794 162.46 834.218 162.46ZM745.845 453.391C761.706 453.391 776.662 449.539 790.711 441.835C804.76 434.132 816.77 423.935 826.74 411.247C837.164 398.105 845.321 383.377 851.213 367.063C857.104 350.749 860.05 333.756 860.05 316.082C860.05 294.33 856.424 277.337 849.173 265.101C841.922 252.866 828.553 246.748 809.066 246.748C802.721 246.748 794.337 247.881 783.913 250.147C773.943 252.413 764.879 257.171 756.721 264.422L711.855 450.672C714.574 451.125 716.84 451.579 718.653 452.032C720.919 452.485 723.185 452.938 725.451 453.391C727.717 453.391 730.436 453.391 733.608 453.391C736.781 453.391 740.859 453.391 745.845 453.391Z" fill="currentColor"/>
<path d="M1075 527.484H974.388L1059.36 169.937H1160.65L1075 527.484ZM1123.94 126.433C1109.89 126.433 1097.2 122.354 1085.87 114.197C1074.54 105.587 1068.88 92.6721 1068.88 75.4519C1068.88 65.9354 1070.69 57.0987 1074.32 48.9417C1078.4 40.3316 1083.61 33.081 1089.95 27.1898C1096.3 20.8455 1103.55 15.8607 1111.71 12.2354C1120.32 8.61012 1129.38 6.79746 1138.9 6.79746C1152.95 6.79746 1165.64 11.1025 1176.97 19.7126C1188.3 27.8696 1193.96 40.5582 1193.96 57.7785C1193.96 67.2949 1191.92 76.3582 1187.84 84.9684C1184.22 93.1253 1179.23 100.376 1172.89 106.72C1166.54 112.611 1159.07 117.37 1150.45 120.995C1142.3 124.62 1133.46 126.433 1123.94 126.433Z" fill="currentColor"/>
<path d="M1250.52 80.8899L1355.89 64.5759L1330.06 169.937H1442.9L1422.51 252.866H1310.34L1280.43 377.939C1277.71 388.362 1275.9 398.105 1275 407.168C1274.54 416.232 1275.68 424.162 1278.39 430.96C1281.57 437.304 1286.78 442.289 1294.03 445.914C1301.28 449.539 1311.25 451.352 1323.94 451.352C1334.82 451.352 1345.24 450.446 1355.21 448.633C1365.63 446.367 1376.06 443.422 1386.48 439.796L1393.96 517.287C1380.36 522.272 1365.63 526.577 1349.77 530.203C1333.91 533.828 1315.1 535.641 1293.35 535.641C1262.08 535.641 1237.83 531.109 1220.61 522.046C1203.39 512.529 1191.15 499.84 1183.9 483.98C1176.65 467.666 1173.48 449.086 1174.39 428.241C1175.29 407.395 1178.46 385.416 1183.9 362.305L1250.52 80.8899Z" fill="currentColor"/>
<path d="M1432.96 384.737C1432.96 353.921 1437.94 324.919 1447.91 297.729C1457.88 270.539 1472.16 246.748 1490.74 226.356C1509.32 205.963 1531.75 189.876 1558.04 178.094C1584.78 166.311 1614.46 160.42 1647.09 160.42C1667.49 160.42 1685.61 162.459 1701.48 166.538C1717.79 170.163 1732.52 175.148 1745.66 181.492L1710.99 260.343C1701.93 256.718 1692.41 253.546 1682.44 250.827C1672.92 247.654 1661.14 246.068 1647.09 246.068C1613.1 246.068 1586.36 257.624 1566.88 280.735C1547.39 303.394 1537.65 334.435 1537.65 373.861C1537.65 396.972 1542.63 415.779 1552.6 430.28C1562.57 444.328 1580.93 451.352 1607.66 451.352C1620.81 451.352 1633.5 449.992 1645.73 447.273C1657.97 444.554 1668.85 441.156 1678.36 437.077L1685.84 517.967C1673.15 522.952 1659.1 527.257 1643.69 530.882C1628.74 534.961 1610.38 537 1588.63 537C1560.53 537 1536.74 532.922 1517.25 524.765C1497.76 516.608 1481.68 505.732 1468.99 492.137C1456.3 478.089 1447.01 461.775 1441.11 443.195C1435.68 424.615 1432.96 405.129 1432.96 384.737Z" fill="currentColor"/>
<path d="M1870.12 537C1846.1 537 1825.25 533.375 1807.58 526.124C1789.9 518.873 1775.17 508.677 1763.39 495.535C1752.06 482.394 1743.45 466.986 1737.56 449.313C1731.67 431.186 1728.72 411.247 1728.72 389.495C1728.72 362.305 1733.03 335.115 1741.64 307.925C1750.7 280.735 1763.84 256.265 1781.06 234.513C1798.29 212.761 1819.36 195.087 1844.29 181.492C1869.21 167.444 1897.76 160.42 1929.94 160.42C1953.51 160.42 1974.13 164.046 1991.8 171.296C2009.93 178.547 2024.66 188.743 2035.99 201.885C2047.77 215.027 2056.61 230.661 2062.5 248.787C2068.39 266.461 2071.34 286.173 2071.34 307.925C2071.34 335.115 2067.03 362.305 2058.42 389.495C2049.81 416.685 2037.12 441.156 2020.35 462.908C2003.58 484.659 1982.51 502.56 1957.13 516.608C1932.21 530.203 1903.2 537 1870.12 537ZM1920.42 246.068C1905.47 246.068 1892.32 250.373 1880.99 258.984C1869.66 267.594 1860.15 278.47 1852.44 291.611C1844.74 304.753 1838.85 319.254 1834.77 335.115C1831.14 350.523 1829.33 365.251 1829.33 379.299C1829.33 402.41 1832.96 420.31 1840.21 432.999C1847.46 445.234 1860.6 451.352 1879.63 451.352C1894.59 451.352 1907.73 447.047 1919.06 438.437C1930.39 429.827 1939.91 418.951 1947.61 405.809C1955.32 392.667 1960.98 378.392 1964.61 362.985C1968.69 347.124 1970.73 332.17 1970.73 318.122C1970.73 295.01 1967.1 277.337 1959.85 265.101C1952.6 252.413 1939.46 246.068 1920.42 246.068Z" fill="currentColor"/>
<path d="M2185.69 527.484H2085.08L2170.06 169.937H2271.35L2185.69 527.484ZM2234.64 126.433C2220.59 126.433 2207.9 122.354 2196.57 114.197C2185.24 105.587 2179.57 92.6721 2179.57 75.4519C2179.57 65.9354 2181.39 57.0987 2185.01 48.9417C2189.09 40.3316 2194.3 33.081 2200.65 27.1898C2206.99 20.8455 2214.24 15.8607 2222.4 12.2354C2231.01 8.61012 2240.07 6.79746 2249.59 6.79746C2263.64 6.79746 2276.33 11.1025 2287.66 19.7126C2298.99 27.8696 2304.65 40.5582 2304.65 57.7785C2304.65 67.2949 2302.62 76.3582 2298.54 84.9684C2294.91 93.1253 2289.93 100.376 2283.58 106.72C2277.24 112.611 2269.76 117.37 2261.15 120.995C2252.99 124.62 2244.15 126.433 2234.64 126.433Z" fill="currentColor"/>
<path d="M2346.26 186.251C2353.96 183.985 2362.35 181.492 2371.41 178.773C2380.93 175.601 2391.35 172.882 2402.68 170.616C2414.47 167.897 2427.38 165.858 2441.43 164.499C2455.93 162.686 2472.25 161.78 2490.38 161.78C2543.85 161.78 2580.56 177.187 2600.5 208.003C2620.44 238.818 2623.84 280.962 2610.7 334.435L2564.47 527.484H2463.18L2508.05 338.514C2510.77 326.732 2512.81 315.403 2514.17 304.527C2515.98 293.197 2515.98 283.454 2514.17 275.297C2512.36 266.687 2508.05 259.89 2501.25 254.905C2494.91 249.467 2484.94 246.748 2471.34 246.748C2458.2 246.748 2444.83 248.108 2431.23 250.827L2365.29 527.484H2264.01L2346.26 186.251Z" fill="currentColor"/>
<path d="M2736.72 527.484H2636.11L2721.09 169.937H2822.38L2736.72 527.484ZM2785.67 126.433C2771.62 126.433 2758.93 122.354 2747.6 114.197C2736.27 105.587 2730.6 92.6721 2730.6 75.4519C2730.6 65.9354 2732.42 57.0987 2736.04 48.9417C2740.12 40.3316 2745.33 33.081 2751.68 27.1898C2758.02 20.8455 2765.27 15.8607 2773.43 12.2354C2782.04 8.61012 2791.11 6.79746 2800.62 6.79746C2814.67 6.79746 2827.36 11.1025 2838.69 19.7126C2850.02 27.8696 2855.69 40.5582 2855.69 57.7785C2855.69 67.2949 2853.65 76.3582 2849.57 84.9684C2845.94 93.1253 2840.96 100.376 2834.61 106.72C2828.27 112.611 2820.79 117.37 2812.18 120.995C2804.02 124.62 2795.18 126.433 2785.67 126.433Z" fill="#00B3F0"/>
<path d="M2963.23 534.281C2931.05 534.281 2905.68 530.203 2887.09 522.046C2868.97 513.435 2855.82 501.88 2847.67 487.379C2839.96 472.877 2836.11 456.337 2836.11 437.757C2836.56 418.724 2839.28 398.558 2844.27 377.259L2930.6 16.3139L3035.97 0L2941.48 391.534C2939.67 399.691 2938.53 407.168 2938.08 413.966C2938.08 420.763 2939.44 426.881 2942.16 432.319C2944.88 437.304 2949.41 441.382 2955.75 444.554C2962.55 447.727 2971.84 449.766 2983.63 450.672L2963.23 534.281Z" fill="#00B3F0"/>
</svg>
